<?xml version="1.0" encoding="UTF-8" standalone="no"?> <svg xmlns="http://www.w3.org/2000/svg" viewBox="0 0 47.14 47.58"><defs><style>.cls-1{fill:none;stroke:#000;stroke-linecap:round;stroke-linejoin:round;stroke-width:2px;}.cls-2{fill:#333;}</style></defs><title>Asset 16</title><g id="Layer_2" data-name="Layer 2"><g id="Layer_2-2" data-name="Layer 2"><path class="cls-1" d="M34.19,39a9.67,9.67,0,0,0,6.22-9,7.37,7.37,0,0,0,0-.82,9.66,9.66,0,0,0,0-17.69,7.52,7.52,0,0,0,0-.82A9.66,9.66,0,0,0,23.57,4.2,9.65,9.65,0,0,0,6.74,10.67c0,.27,0,.55,0,.82a9.66,9.66,0,0,0,0,17.69c0,.27,0,.54,0,.82a9.68,9.68,0,0,0,6.12,9m3.55.67a9.63,9.63,0,0,0,7.16-3.2,9.63,9.63,0,0,0,7.17,3.2"/><path class="cls-1" d="M29.6,13.91c0,3.33-2.7,10.27-6,10.27s-6-6.94-6-10.27a6,6,0,1,1,12.05,0Z"/><line class="cls-1" x1="16.76" y1="6.67" x2="19.51" y2="9.47"/><line class="cls-1" x1="30.38" y1="6.67" x2="27.64" y2="9.47"/><circle class="cls-2" cx="21.26" cy="15.12" r="0.96"/><circle class="cls-2" cx="25.85" cy="15.12" r="0.96"/><path class="cls-1" d="M16.19,35.58V45a1.61,1.61,0,0,1-1.62,1.61h0A1.62,1.62,0,0,1,13,45V34.58"/><path class="cls-1" d="M34.19,34.58V45a1.61,1.61,0,0,1-1.62,1.61h0A1.62,1.62,0,0,1,31,45V35.58"/><path class="cls-1" d="M11.52,33.16s4,3.29,8,3"/><path class="cls-1" d="M35.62,33.16s-4,3.29-8,3"/></g></g></svg>