<?xml version="1.0" encoding="UTF-8" standalone="no"?> <svg xmlns="http://www.w3.org/2000/svg" viewBox="0 0 512 512"><title>Sheep02</title><g id="Sheep_02" data-name="Sheep 02"><g id="Sheep_02-2" data-name="Sheep 02"><path d="M406.2937,173.8394c-11.3509-11.6592-22.8785-17.5711-34.258-17.5711a32.2838,32.2838,0,0,0-12.1808,2.4279,65.219,65.219,0,0,0-59.1358-6.704,65.4752,65.4752,0,0,0-109.8691,0,65.5081,65.5081,0,0,0-88.37,55.9222,37.7958,37.7958,0,0,0,0,75.3608,65.6408,65.6408,0,0,0,38.25,54.2184L127.9827,384.83l18.6567,5.0268L159.3161,342.79a63.5818,63.5818,0,0,0,31.5366-3.6,65.4641,65.4641,0,0,0,109.87,0,65.6927,65.6927,0,0,0,17.2748,3.9449l12.5838,46.7222,18.6539-5.0268-11.5662-42.942a65.6657,65.6657,0,0,0,51.6966-64.0614c0-2.0645-.138-4.106-.3284-6.1373,7.7988,4.0507,16.1129,6.8871,24.1693,6.8871a30.0466,30.0466,0,0,0,20.344-7.4833,31.7419,31.7419,0,0,0,10.7805-23.2511C445.4554,220.3564,417.2574,185.1039,406.2937,173.8394ZM103.7,264.0132a18.5066,18.5066,0,0,1,0-36.8442,65.0869,65.0869,0,0,0,7.0067,18.4221A65.2025,65.2025,0,0,0,103.7,264.0132Zm220.087,60.0686a46.191,46.191,0,0,1-22.4655-5.841l-9.1383-5.1-4.36,9.5155a46.1776,46.1776,0,0,1-84.0871,0L199.383,313.14l-9.1384,5.1a46.21,46.21,0,0,1-60.22-67.0662l3.9477-5.5761-3.9477-5.578a46.2159,46.2159,0,0,1,60.2232-67.06l9.1356,5.094,4.3534-9.5155a46.1867,46.1867,0,0,1,84.0871,0l4.3534,9.5155,9.1384-5.094a46.2214,46.2214,0,0,1,22.4719-5.8411,45.7147,45.7147,0,0,1,19.1691,4.2311c-7.8439,9.039-12.6969,19.7423-14.76,24.9421-7.97,5.9119-29.8788,23.8924-31.8623,44.05-.8694,8.8743,2.1574,17.13,8.7556,23.8667,7.7667,7.9377,15.7651,9.5965,21.1067,9.5965,14.9923,0,27.6855-12.6105,35.13-22.138.4094.3763.8629.7728,1.2944,1.162a46.1516,46.1516,0,0,1-38.8332,71.2521Zm97.0609-67.5454a10.988,10.988,0,0,1-7.6415,2.7241c-14.0355,0-35.79-17.8683-46.2006-29.1189l-8.8936-9.6472-6.5716,11.351c-4.0995,7.0932-16.1874,22.6329-25.345,22.6329-.8851,0-3.5834,0-7.303-3.7931-2.611-2.6662-3.6414-5.2772-3.3322-8.4521,1.0561-10.8422,16.583-25.2935,26.1169-31.85l2.6855-1.8354,1.024-3.0875c2.5732-7.7537,12.9931-29.8724,26.6459-29.8724,5.8862,0,12.9444,4.0572,20.4084,11.7245C406,201.2416,425.73,229.8656,425.024,247.053,424.86,251.1847,423.5336,254.195,420.8481,256.5364Z"/></g></g></svg>