<?xml version="1.0" encoding="UTF-8" standalone="no"?> <svg width="101" height="101" viewBox="0 0 101 101" fill="none" xmlns="http://www.w3.org/2000/svg">
<g clip-path="url(#clip0_121_2103)">
<path d="M98.39 64.9304C98.2768 64.6549 98.0842 64.4193 97.8367 64.2537C97.5891 64.0881 97.2979 63.9999 97 64.0004H89.24C89.1351 57.7225 86.6538 51.7179 82.2965 47.1972C77.9391 42.6765 72.0298 39.9761 65.76 39.6404C65.624 39.6219 65.4861 39.6219 65.35 39.6404C60.6169 35.7433 54.8852 33.2527 48.8068 32.4517C42.7283 31.6507 36.5471 32.5715 30.966 35.1094C25.3849 37.6473 20.6281 41.7004 17.2363 46.8078C13.8446 51.9152 11.9542 57.8719 11.78 64.0004H4.00002C3.70354 64.0006 3.41379 64.0887 3.16736 64.2536C2.92093 64.4184 2.72887 64.6526 2.61545 64.9265C2.50203 65.2005 2.47232 65.5019 2.53009 65.7927C2.58786 66.0834 2.73051 66.3506 2.94002 66.5604L13.81 77.4304C15.5721 79.2023 17.6682 80.607 19.9769 81.5631C22.2856 82.5192 24.7611 83.0077 27.26 83.0004H73.74C76.2389 83.0077 78.7144 82.5192 81.0231 81.5631C83.3319 80.607 85.428 79.2023 87.19 77.4304L98.06 66.5604C98.2697 66.3515 98.4129 66.0853 98.4716 65.7953C98.5303 65.5053 98.5019 65.2043 98.39 64.9304V64.9304ZM86.23 64.0004H77.3C77.0702 56.2544 74.0928 48.8427 68.9 43.0904C73.7291 44.0992 78.073 46.7169 81.221 50.5153C84.3691 54.3137 86.135 59.0679 86.23 64.0004ZM44.54 35.2104C52.2631 35.2213 59.6808 38.2282 65.2316 43.598C70.7823 48.9679 74.0333 56.2819 74.3 64.0004H66.58C66.58 58.1537 64.2574 52.5464 60.1232 48.4122C55.989 44.278 50.3817 41.9554 44.535 41.9554C38.6883 41.9554 33.0811 44.278 28.9469 48.4122C24.8126 52.5464 22.49 58.1537 22.49 64.0004H14.78C15.0468 56.2819 18.2977 48.9679 23.8485 43.598C29.3993 38.2282 36.8169 35.2213 44.54 35.2104V35.2104ZM55.4 64.0004C55.2798 61.1981 54.082 58.5506 52.0567 56.6103C50.0313 54.6699 47.3348 53.5867 44.53 53.5867C41.7252 53.5867 39.0288 54.6699 37.0034 56.6103C34.978 58.5506 33.7803 61.1981 33.66 64.0004H25.5C25.5 58.952 27.5055 54.1104 31.0752 50.5406C34.645 46.9708 39.4866 44.9654 44.535 44.9654C49.5834 44.9654 54.425 46.9708 57.9948 50.5406C61.5646 54.1104 63.57 58.952 63.57 64.0004H55.4ZM52.4 64.0004H36.67C36.7937 61.9984 37.6762 60.119 39.1376 58.7451C40.599 57.3712 42.5292 56.6064 44.535 56.6064C46.5408 56.6064 48.4711 57.3712 49.9325 58.7451C51.3939 60.119 52.2763 61.9984 52.4 64.0004V64.0004ZM85.07 75.3104C83.5856 76.8027 81.8199 77.9857 79.875 78.7908C77.9302 79.5958 75.8449 80.007 73.74 80.0004H27.26C25.1551 80.007 23.0699 79.5958 21.125 78.7908C19.1802 77.9857 17.4144 76.8027 15.93 75.3104L7.62002 67.0004H93.38L85.07 75.3104Z" fill="black" stroke="black" stroke-width="2.2"/>
<path d="M65.81 29.8297C65.5222 30.1082 65.3569 30.4896 65.3503 30.89C65.3438 31.2904 65.4965 31.677 65.775 31.9647C66.0535 32.2525 66.4349 32.4178 66.8352 32.4244C67.2356 32.431 67.6222 32.2782 67.91 31.9997C68.02 31.8997 78.44 21.4597 67.34 8.80972C67.2087 8.66133 67.0494 8.54026 66.8713 8.45341C66.6932 8.36657 66.4997 8.31566 66.3019 8.30359C65.9025 8.27921 65.5097 8.41451 65.21 8.67972C64.9103 8.94494 64.7282 9.31835 64.7039 9.7178C64.6795 10.1173 64.8148 10.51 65.08 10.8097C74.27 21.2297 66.17 29.4697 65.81 29.8297Z" fill="black" stroke="black" stroke-width="2.2"/>
<path d="M58.9999 19.53C59.007 20.907 58.625 22.2581 57.8979 23.4275C57.1707 24.5969 56.1281 25.5372 54.8899 26.14C54.535 26.3071 54.2596 26.6067 54.1229 26.9744C53.9861 27.3422 53.9989 27.7488 54.1585 28.1073C54.3181 28.4657 54.6118 28.7473 54.9766 28.8918C55.3414 29.0362 55.7482 29.032 56.1099 28.88C57.8871 28.0368 59.3859 26.7028 60.4296 25.0354C61.4732 23.3681 62.0181 21.437 61.9999 19.47C61.9399 15.77 60.2399 13.73 58.5999 11.75C56.7499 9.53 54.9999 7.43 54.9999 2.5C54.9999 2.10218 54.8419 1.72064 54.5606 1.43934C54.2793 1.15804 53.8978 1 53.4999 1C53.1021 1 52.7206 1.15804 52.4393 1.43934C52.158 1.72064 51.9999 2.10218 51.9999 2.5C51.9386 4.55331 52.2863 6.5983 53.0229 8.51596C53.7594 10.4336 54.8699 12.1856 56.2899 13.67C57.7799 15.47 58.9999 16.88 58.9999 19.53Z" fill="black" stroke="black" stroke-width="2.2"/>
</g>
<defs>
<clipPath id="clip0_121_2103">
<rect width="101" height="101" fill="white"/>
</clipPath>
</defs>
</svg>
