<?xml version="1.0" encoding="UTF-8" standalone="no"?> <svg xmlns="http://www.w3.org/2000/svg" viewBox="0 0 512 512"><title>Pork</title><g id="Pork"><g id="Pork-2" data-name="Pork"><path d="M410.5059,317.309a39.6343,39.6343,0,0,0-47.7816-6.326l-13.492-13.488c8.21-17.9154,18.546-56.927,2.019-96.8959a127.1624,127.1624,0,0,0-28.095-41.3281L266.5479,102.66c-.0283-.0283-.05-.0566-.0737-.0809-.0214-.0213-.05-.04-.0709-.0607l-.67-.673-.0425.0394c-8.1638-7.7468-19.4667-11.8626-32.8272-11.8626-28.4807,0-64.7407,18.5641-94.6352,48.4545-46.0176,46.0218-61.7826,102.35-35.89,128.2346a39.3582,39.3582,0,0,0,4.64,3.9L159.4024,323.04c29.6678,29.6749,61.989,36.8965,86.4147,36.8965,3.2019,0,6.2622-.1234,9.1667-.34a131.8767,131.8767,0,0,0,42.6416-10.4843l13.492,13.495a39.5991,39.5991,0,0,0,34.3108,59.371h.0071a39.49,39.49,0,0,0,39.4721-37.191,39.5676,39.5676,0,0,0,25.5985-67.4781ZM254.3351,156.0559c-6.2724,19.7846-20.0477,41.0012-38.7809,59.7353-25.6653,25.6542-56.9057,42.2277-79.6029,42.2277-6.1813,0-11.2635-1.2467-15.1992-3.6836l-3.7576-3.7576-.2833.2834c-13.6408-15.43-2.3064-58.5068,36.5463-97.3595,25.6542-25.6512,56.9018-42.2277,79.61-42.2277,8.1072,0,14.3483,2.1252,18.5459,6.3047l.0638.0608C258.72,124.9247,259.7655,138.92,254.3351,156.0559ZM395.4767,358.2788a18.3774,18.3774,0,0,1-19.2118,4.25,10.6314,10.6314,0,0,0-13.6155,13.6013,18.4526,18.4526,0,0,1-4.2463,19.23,18.2315,18.2315,0,0,1-12.9708,5.37h-.0071a18.3491,18.3491,0,0,1-13.1306-31.16c.089-.081.181-.17.2408-.2267a10.6157,10.6157,0,0,0,.1742-15.1911l-18.118-18.1179,21.5637-21.5637,18.1107,18.1169a10.38,10.38,0,0,0,7.63,3.1139,10.6337,10.6337,0,0,0,7.5545-3.2728c.05-.0526.1315-.1417.2165-.2267a18.3451,18.3451,0,0,1,25.81,26.0762Z"/><rect x="159.4121" y="172.9132" width="47.7672" height="21.2481" transform="translate(-76.0944 183.3577) rotate(-44.9981)"/></g></g></svg>