<?xml version="1.0" encoding="UTF-8"?>
<!DOCTYPE svg PUBLIC "-//W3C//DTD SVG 1.1//EN" "http://www.w3.org/Graphics/SVG/1.1/DTD/svg11.dtd">
<!-- Creator: CorelDRAW -->
<svg xmlns="http://www.w3.org/2000/svg" xml:space="preserve" width="1.70666in" height="1.70666in" version="1.1" style="shape-rendering:geometricPrecision; text-rendering:geometricPrecision; image-rendering:optimizeQuality; fill-rule:evenodd; clip-rule:evenodd"
viewBox="0 0 1706.66 1706.66"
 xmlns:xlink="http://www.w3.org/1999/xlink"
 xmlns:xodm="http://www.corel.com/coreldraw/odm/2003">
 <defs>
  <style type="text/css">
   <![CDATA[
    .fil0 {fill:black}
   ]]>
  </style>
 </defs>
 <g id="Layer_x0020_1">
  <metadata id="CorelCorpID_0Corel-Layer"/>
  <path class="fil0" d="M858.3 1602.51c-13.38,0 -24.5,-4.93 -24.96,-19.41 -4.89,-151.66 71.94,-378.59 330.95,-327.31 7.93,1.57 14.14,7.78 15.71,15.7 49.94,252.13 -159.22,331.02 -321.7,331.02zm232.88 -314.39c-167.44,0 -212.61,159.26 -217.56,274.09 143.5,-5.94 302.26,-69.23 269.59,-269.62 -18.21,-2.98 -35.65,-4.47 -52.04,-4.47z"/>
  <path class="fil0" d="M848.33 1602.51c-162.48,0 -371.61,-78.91 -321.69,-331.02 1.57,-7.93 7.78,-14.14 15.72,-15.7 259.1,-51.26 335.76,175.62 330.94,327.31 -0.46,14.46 -11.58,19.41 -24.97,19.41zm-284.91 -309.93c-32.66,200.34 126.06,263.69 269.57,269.62 -6.35,-143.82 -69.26,-302.34 -269.57,-269.62z"/>
  <path class="fil0" d="M853.33 1602.47c-5.12,0 -10.23,-1.96 -14.13,-5.86l-188.38 -188.38c-18.61,-18.61 9.66,-46.88 28.25,-28.27l188.39 188.38c12.63,12.63 3.51,34.12 -14.14,34.12z"/>
  <path class="fil0" d="M853.32 1602.45c-17.61,0 -26.77,-21.5 -14.13,-34.13l188.38 -188.38c18.63,-18.63 46.87,9.69 28.27,28.27l-188.38 188.38c-3.92,3.92 -9.02,5.86 -14.14,5.86z"/>
  <path class="fil0" d="M1644.31 1196.57l-1581.96 0c-33.93,0 -61.54,-27.6 -61.54,-61.54l0 -46.78c0,-33.93 27.61,-61.55 61.54,-61.55l1581.96 0c33.93,0 61.55,27.61 61.55,61.55l0 46.78c-0.02,33.94 -27.63,61.54 -61.55,61.54zm-1581.96 -129.87c-28.54,0 -21.57,37.65 -21.57,68.35 0,11.89 9.69,21.56 21.57,21.56l1581.96 0c28.53,0 21.57,-37.62 21.57,-68.34 0,-11.89 -9.67,-21.57 -21.57,-21.57l-1581.96 0z"/>
  <path class="fil0" d="M1098.76 1694.04l-490.91 0c-285.33,0 -517.44,-232.13 -517.44,-517.45 0,-26.3 39.96,-26.3 39.96,0 0,263.3 214.2,477.48 477.48,477.48l490.91 0c263.3,0 477.48,-214.2 477.48,-477.48 0,-26.3 39.96,-26.3 39.96,0 0.02,285.31 -232.11,517.45 -517.44,517.45z"/>
  <path class="fil0" d="M194.07 1066.71c-28.94,0 -61.17,-78.41 -61.17,-127.04 0,-105.15 90.21,-188.06 195.52,-178.92 -66.03,-124.82 32.02,-275.3 174.63,-262.93 -66.47,-125.74 33.49,-276.38 175.78,-262.81 -27.51,-112.33 57.58,-222.4 174.5,-222.4 116.93,0 202.01,110.07 174.5,222.4 142.35,-13.58 242.27,137.18 175.78,262.81 142.68,-12.38 240.65,138.25 174.61,262.93 163.35,-14.14 257.5,179.35 149.17,299.36 -17.63,19.53 -47.3,-7.28 -29.66,-26.79 100.98,-111.73 -25,-283.98 -162.43,-220.31 -20.59,9.54 -38.67,-17.62 -21.88,-32.9 116.89,-106.37 -8.37,-296.92 -152.76,-230.01 -20.6,9.55 -38.66,-17.65 -21.88,-32.91 109.39,-99.41 6.93,-281 -135.65,-236.66 -16.56,5.15 -31.47,-12.13 -23.94,-27.76 44.15,-91.58 -22.47,-200.18 -125.9,-200.18 -103.24,0 -170.13,108.35 -125.88,200.18 7.52,15.62 -7.42,32.91 -23.95,27.76 -142.33,-44.42 -245.09,137.11 -135.65,236.66 16.79,15.28 -1.31,42.48 -21.87,32.91 -143.84,-67.06 -269.9,123.43 -152.77,230.01 16.8,15.28 -1.3,42.45 -21.88,32.9 -137.23,-63.72 -263.47,108.54 -162.44,220.31 11.65,12.89 2.31,33.39 -14.79,33.39z"/>
  <path class="fil0" d="M761.71 523.71c-52.44,0 -95.11,-42.65 -95.11,-95.11 0,-52.46 42.65,-95.11 95.11,-95.11 52.45,0 95.11,42.65 95.11,95.11 0,52.45 -42.66,95.11 -95.11,95.11zm0 -150.25c-72.57,0 -72.57,110.29 0,110.29 72.58,0 72.58,-110.29 0,-110.29z"/>
  <path class="fil0" d="M646.03 899.22c-52.44,0 -95.11,-42.67 -95.11,-95.11 0,-52.44 42.65,-95.11 95.11,-95.11 52.46,0 95.11,42.65 95.11,95.11 0,52.45 -42.67,95.11 -95.11,95.11zm0 -150.25c-72.57,0 -72.57,110.29 0,110.29 72.58,0 72.58,-110.29 0,-110.29z"/>
  <path class="fil0" d="M1029.19 990.78c-52.44,0 -95.11,-42.65 -95.11,-95.11 0,-52.46 42.67,-95.11 95.11,-95.11 52.42,0 95.11,42.67 95.11,95.11 0,52.44 -42.69,95.11 -95.11,95.11zm0 -150.24c-72.56,0 -72.59,110.28 0,110.28 72.57,0 72.54,-110.28 0,-110.28z"/>
  <path class="fil0" d="M916.78 724.37c-52.44,0 -95.09,-42.65 -95.09,-95.11 0,-52.46 42.65,-95.11 95.09,-95.11 52.44,0 95.11,42.65 95.11,95.11 0,52.45 -42.66,95.11 -95.11,95.11zm0 -150.24c-72.54,0 -72.56,110.29 0,110.29 72.57,0 72.59,-110.29 0,-110.29z"/>
 </g>
</svg>
