<?xml version="1.0" encoding="UTF-8" standalone="no"?> <svg id="_1_-_10" data-name="1 - 10" xmlns="http://www.w3.org/2000/svg" viewBox="0 0 48 48"><title>Vegetables</title><g id="Vegetables"><path d="M25.787,12.787a5.114,5.114,0,0,1-3.64,1.507,1,1,0,0,0,0,2A7.1,7.1,0,0,0,27.2,14.2a1,1,0,1,0-1.414-1.414Z"/><path d="M39.885,14.672A7.563,7.563,0,0,0,40.2,12.5,7.642,7.642,0,0,0,28.528,6,7.166,7.166,0,0,0,15.081,7.721,8.59,8.59,0,0,0,5.9,16.3a8.435,8.435,0,0,0,.177,1.706A8.04,8.04,0,0,0,4,23.425a8.06,8.06,0,0,0,10.114,7.859,27.448,27.448,0,0,1,3.819,11.925A3.017,3.017,0,0,0,20.92,46h6.159a3.008,3.008,0,0,0,2.985-2.788,26.626,26.626,0,0,1,4.318-12.675A8.79,8.79,0,0,0,35.4,30.6a8.594,8.594,0,0,0,4.485-15.928Zm-11.816,28.4a1,1,0,0,1-.99.932H20.92a1,1,0,0,1-.993-.939A29.571,29.571,0,0,0,16,30.545a8.1,8.1,0,0,0,1.555-1.081,51.435,51.435,0,0,1,3.49,7.835A1,1,0,0,0,22,38a.943.943,0,0,0,.149-.011A1,1,0,0,0,23,37a86.526,86.526,0,0,1,.533-9.294,9.747,9.747,0,0,0,2.2-.145A42.325,42.325,0,0,0,25,37.09a1,1,0,0,0,.884.9A1.051,1.051,0,0,0,26,38a1,1,0,0,0,.951-.689,56.391,56.391,0,0,1,3.678-8.165,8.472,8.472,0,0,0,1.7.886A28.854,28.854,0,0,0,28.069,43.068Zm-9.136-15.23a8.09,8.09,0,0,0,.641-1.181,9.242,9.242,0,0,0,1.981.76c-.2,1.392-.336,3.125-.417,4.738C20.434,30.619,19.654,29.088,18.933,27.838Zm9.011-.961c.1-.044.2-.077.3-.125a8.607,8.607,0,0,0,.847,1.065c-.609,1.067-1.275,2.363-1.9,3.7A32.378,32.378,0,0,1,27.944,26.877ZM35.4,28.6a6.568,6.568,0,0,1-5.9-3.653.993.993,0,0,0-.629-.516,1.008,1.008,0,0,0-.8.122,7.623,7.623,0,0,1-8.453-.217,1,1,0,0,0-1.553.571A6.12,6.12,0,1,1,6.905,20.236a8.628,8.628,0,0,0,4.242,3.855,1,1,0,1,0,.779-1.843,6.718,6.718,0,0,1-3.787-4.216,6.584,6.584,0,0,1,7.614-8.209A1,1,0,0,0,16.94,8.9,5.167,5.167,0,0,1,27.1,7.855a1,1,0,0,0,1.643.483,5.644,5.644,0,0,1,9,6.4A5.528,5.528,0,0,1,32.7,18a1,1,0,0,0,0,2,7.529,7.529,0,0,0,6.346-3.49A6.593,6.593,0,0,1,35.4,28.6Z"/></g></svg>